# xmcd CD database file
#
# Track frame offsets:
#	150
#	20062
#	41170
#	57820
#	80395
#	119222
#	142248
#	163845
#	183924
#	197596
#	229801
#	258373
#
# Disc length: 3696 seconds
#
# Revision: 0
# Processed by: cddbd v1.5.1PL2 Copyright (c) Steve Scherf et al.
# Submitted via: Feurio! 1.68 - http://www.feurio.com
#
DISCID=af0e6e0c
DTITLE=B.B. King and Eric Clapton - Riding With The King
DYEAR=1900
DGENRE=Blues
TTITLE0=Riding With The King
TTITLE1=Ten Long Years
TTITLE2=Key To The Highway
TTITLE3=Marry You
TTITLE4=Three O'Clock Blues
TTITLE5=Help The Poor
TTITLE6=I Wanna Be
TTITLE7=Worried Life Blues
TTITLE8=Days Of Old
TTITLE9=When My Heartbeats Like A Hammer
TTITLE10=Hold On, I'm Coming
TTITLE11=Come Rain Or Come Shine
EXTD=
EXTT0=
EXTT1=
EXTT2=
EXTT3=
EXTT4=
EXTT5=
EXTT6=
EXTT7=
EXTT8=
EXTT9=
EXTT10=
EXTT11=
PLAYORDER=
